<svg width="16" height="16" viewBox="0 0 16 16" fill="none" xmlns="http://www.w3.org/2000/svg">
<path d="M5.27273 8.36364C5.59637 8.36364 5.91274 8.26767 6.18184 8.08786C6.45094 7.90805 6.66068 7.65249 6.78453 7.35348C6.90838 7.05448 6.94079 6.72546 6.87765 6.40803C6.81451 6.09061 6.65866 5.79904 6.42981 5.57019C6.20096 5.34134 5.90939 5.18549 5.59197 5.12235C5.27454 5.05921 4.94552 5.09162 4.64652 5.21547C4.34751 5.33932 4.09195 5.54906 3.91214 5.81816C3.73233 6.08726 3.63636 6.40363 3.63636 6.72727C3.63636 7.16126 3.80877 7.57748 4.11564 7.88436C4.42252 8.19124 4.83874 8.36364 5.27273 8.36364ZM5.27273 6.18182C5.38061 6.18182 5.48607 6.21381 5.57577 6.27374C5.66547 6.33368 5.73538 6.41887 5.77666 6.51854C5.81795 6.61821 5.82875 6.72788 5.8077 6.83369C5.78665 6.93949 5.7347 7.03668 5.65842 7.11297C5.58214 7.18925 5.48495 7.2412 5.37914 7.26225C5.27333 7.28329 5.16366 7.27249 5.06399 7.23121C4.96432 7.18992 4.87913 7.12001 4.8192 7.03031C4.75926 6.94061 4.72727 6.83515 4.72727 6.72727C4.72727 6.58261 4.78474 6.44387 4.88703 6.34158C4.98933 6.23929 5.12806 6.18182 5.27273 6.18182ZM12.3636 5.09091H8C7.85534 5.09091 7.7166 5.14838 7.61431 5.25067C7.51201 5.35296 7.45455 5.4917 7.45455 5.63636V8.90909H3.09091V4.54545C3.09091 4.40079 3.03344 4.26205 2.93115 4.15976C2.82886 4.05747 2.69012 4 2.54545 4C2.40079 4 2.26205 4.05747 2.15976 4.15976C2.05747 4.26205 2 4.40079 2 4.54545V11.6364C2 11.781 2.05747 11.9198 2.15976 12.0221C2.26205 12.1244 2.40079 12.1818 2.54545 12.1818C2.69012 12.1818 2.82886 12.1244 2.93115 12.0221C3.03344 11.9198 3.09091 11.781 3.09091 11.6364V10H12.9091V11.6364C12.9091 11.781 12.9666 11.9198 13.0689 12.0221C13.1711 12.1244 13.3099 12.1818 13.4545 12.1818C13.5992 12.1818 13.7379 12.1244 13.8402 12.0221C13.9425 11.9198 14 11.781 14 11.6364V6.72727C14 6.29328 13.8276 5.87707 13.5207 5.57019C13.2138 5.26331 12.7976 5.09091 12.3636 5.09091ZM12.9091 8.90909H8.54545V6.18182H12.3636C12.5083 6.18182 12.647 6.23929 12.7493 6.34158C12.8516 6.44387 12.9091 6.58261 12.9091 6.72727V8.90909Z" fill="#222222"/>
</svg>
