<svg width="16" height="16" viewBox="0 0 16 16" fill="none" xmlns="http://www.w3.org/2000/svg">
<path fill-rule="evenodd" clip-rule="evenodd" d="M3.75638 6.28816L3.93336 5.75725H3.63638C3.36851 5.75725 3.15154 5.54028 3.15154 5.2724C3.15154 5.00452 3.36851 4.78755 3.63638 4.78755C3.93335 4.78755 4.2565 4.78755 4.2565 4.78755C4.2565 4.78755 4.48778 4.09374 4.63105 3.66465C4.69699 3.46659 4.8822 3.33301 5.09093 3.33301C6.22232 3.33301 9.77772 3.33301 10.9091 3.33301C11.1178 3.33301 11.3031 3.46659 11.369 3.66465L11.7435 4.78755H12.3637C12.6315 4.78755 12.8485 5.00452 12.8485 5.2724C12.8485 5.54028 12.6315 5.75725 12.3637 5.75725H12.0667L12.2437 6.28816C12.8703 6.4501 13.3334 7.01931 13.3334 7.69664V12.0603C13.3334 12.3282 13.1164 12.5451 12.8485 12.5451C12.5523 12.5451 12.1751 12.5451 11.8788 12.5451C11.6109 12.5451 11.394 12.3282 11.394 12.0603V11.5754H4.60608V12.0603C4.60608 12.3282 4.38911 12.5451 4.12123 12.5451C3.82499 12.5451 3.44778 12.5451 3.15154 12.5451C2.88366 12.5451 2.66669 12.3282 2.66669 12.0603C2.66669 11.1381 2.66669 9.09834 2.66669 7.69664C2.66669 7.01931 3.12972 6.4501 3.75638 6.28816ZM4.60608 8.18149C4.87396 8.18149 5.09093 8.39846 5.09093 8.66634C5.09093 8.93422 4.87396 9.15119 4.60608 9.15119C4.18305 9.15119 3.63638 9.15119 3.63638 9.15119V10.6057H5.27614C5.27614 10.6057 5.84584 9.46658 6.11178 8.93446C6.19396 8.7701 6.36172 8.66634 6.54547 8.66634C7.20826 8.66634 8.79178 8.66634 9.45457 8.66634C9.63832 8.66634 9.80608 8.7701 9.88826 8.93446C10.1542 9.46658 10.7239 10.6057 10.7239 10.6057H12.3637V9.15119H11.394C11.1261 9.15119 10.9091 8.93422 10.9091 8.66634C10.9091 8.39846 11.1261 8.18149 11.394 8.18149C11.817 8.18149 12.3637 8.18149 12.3637 8.18149V7.69664C12.3637 7.42877 12.1467 7.2118 11.8788 7.2118C10.3511 7.2118 5.64899 7.2118 4.12123 7.2118C3.85335 7.2118 3.63638 7.42877 3.63638 7.69664V8.18149H4.60608ZM9.15493 9.63604H6.84511L6.36026 10.6057H9.63978L9.15493 9.63604ZM5.44051 4.3027L4.79396 6.2421H11.2061L10.5595 4.3027H5.44051Z" fill="#222222"/>
</svg>
