<?xml version="1.0" ?>
<!-- Uploaded to: SVG Repo, www.svgrepo.com, Generator: SVG Repo Mixer Tools -->
<svg fill="#000000" width="800px" height="800px" viewBox="0 0 100 100" version="1.1" xml:space="preserve" xmlns="http://www.w3.org/2000/svg" xmlns:xlink="http://www.w3.org/1999/xlink">
<g id="store"/>
<g id="groceries"/>
<g id="fruits"/>
<g id="bakery">
<g>
<path d="M95,50h-4.9C92,46.3,93,42.2,93,38c0-14.3-11.6-26-25.9-26c-6,0-11.9,2.1-16.5,6H31v-2c0-6.6-5.4-12-12-12S7,9.4,7,16v34    H5c-0.6,0-1,0.4-1,1v6c0,0.6,0.4,1,1,1h1.1L11,95.1c0.1,0.5,0.5,0.9,1,0.9h76c0.5,0,0.9-0.4,1-0.9L93.9,58H95c0.6,0,1-0.4,1-1v-6    C96,50.4,95.6,50,95,50z M67.1,14C80.3,14,91,24.8,91,38c0,4.2-1.1,8.4-3.2,12H59v-7.9c1.5,2.9,4.5,4.9,8,4.9c5,0,9-4,9-9    s-4-9-9-9c-3.5,0-6.5,2-8,4.9v-2.1c0-0.9,0.3-1.7,0.9-2.3l2.5-2.5c1-1,1.5-2.3,1.5-3.7c0-2.9-2.4-5.2-5.2-5.2H54    C57.9,15.4,62.4,14,67.1,14z M60,38c0-3.9,3.1-7,7-7s7,3.1,7,7s-3.1,7-7,7S60,41.9,60,38z M58.8,20c1.8,0,3.2,1.5,3.2,3.2    c0,0.9-0.3,1.7-0.9,2.3l-2.5,2.5c-1,1-1.5,2.3-1.5,3.7V50H31V20H58.8z M9,16c0-5.5,4.5-10,10-10s10,4.5,10,10v34H9V16z M82.1,58    l1.1,7h-9l-1.1-7H82.1z M89.6,75h-2.8l-1.3-8h5.1L89.6,75z M62.8,75h-9l-1.3-8h9L62.8,75z M63.6,67h9l1.3,8h-9L63.6,67z M43.2,77    h9l1.3,8h-9L43.2,77z M42.4,85h-9l-1.3-8h9L42.4,85z M54.2,77h9l1.3,8h-9L54.2,77z M51.8,75h-9l-1.3-8h9L51.8,75z M40.8,75h-9    l-1.3-8h9L40.8,75z M29.8,75h-9l-1.3-8h9L29.8,75z M18.8,75h-8.5l-1.1-8h8.2L18.8,75z M10.6,77h8.5l1.3,8h-8.7L10.6,77z M21.2,77    h9l1.3,8h-9L21.2,77z M31.7,87l1.1,7h-9l-1.1-7H31.7z M33.7,87h9l1.1,7h-9L33.7,87z M44.7,87h9l1.1,7h-9L44.7,87z M55.7,87h9    l1.1,7h-9L55.7,87z M66.7,87h9l1.1,7h-9L66.7,87z M66.4,85l-1.3-8h9l1.3,8H66.4z M76.2,77h9l1.3,8h-9L76.2,77z M88.4,84.6L87.2,77    h2.2L88.4,84.6z M84.8,75h-9l-1.3-8h9L84.8,75z M71.1,58l1.1,7h-9l-1.1-7H71.1z M60.1,58l1.1,7h-9l-1.1-7H60.1z M49.1,58l1.1,7h-9    l-1.1-7H49.1z M38.1,58l1.1,7h-9l-1.1-7H38.1z M27.1,58l1.1,7h-9l-1.1-7H27.1z M16.1,58l1.1,7H9.1l-0.9-7H16.1z M12,87h8.8l1.1,7    h-9L12,87z M78.9,94l-1.1-7h9l0.7,4.6L87.1,94H78.9z M90.9,65h-5.7l-1.1-7h7.7L90.9,65z M94,56h-1H7H6v-4h2h22h64V56z"/>
<path d="M19,14c-1.5,0-9,0.1-9,3s7.5,3,9,3s9-0.1,9-3S20.5,14,19,14z M19,18c-3.5,0-5.9-0.6-6.7-1c0.9-0.4,3.2-1,6.7-1    s5.9,0.6,6.7,1C24.9,17.4,22.5,18,19,18z"/>
<path d="M19,26c-1.5,0-9,0.1-9,3s7.5,3,9,3s9-0.1,9-3S20.5,26,19,26z M19,30c-3.5,0-5.9-0.6-6.7-1c0.9-0.4,3.2-1,6.7-1    s5.9,0.6,6.7,1C24.9,29.4,22.5,30,19,30z"/>
<path d="M19,38c-1.5,0-9,0.1-9,3s7.5,3,9,3s9-0.1,9-3S20.5,38,19,38z M19,42c-3.5,0-5.9-0.6-6.7-1c0.9-0.4,3.2-1,6.7-1    s5.9,0.6,6.7,1C24.9,41.4,22.5,42,19,42z"/>
</g>
</g>
<g id="hygiene_product"/>
<g id="detergent"/>
<g id="cooking_oil"/>
<g id="snacks"/>
<g id="canned_food"/>
<g id="wheat_flour"/>
<g id="milk_powder"/>
<g id="coffee_powder"/>
<g id="tea_bag"/>
<g id="meat"/>
<g id="chicken"/>
<g id="cart"/>
<g id="sausage"/>
<g id="egg"/>
<g id="drink"/>
<g id="vegetable"/>
</svg>