<svg width="10" height="12" viewBox="0 0 10 12" fill="none" xmlns="http://www.w3.org/2000/svg">
<path d="M9.83198 8.36893L8.40798 7.55243L9.64561 7.00868C9.81798 6.93293 9.89736 6.73118 9.82186 6.55818C9.74786 6.39081 9.53998 6.30868 9.37123 6.38243L7.67048 7.12956L5.68736 5.99231L7.66098 4.85306L9.38098 5.60206C9.55561 5.67731 9.75773 5.59118 9.82986 5.42456C9.90473 5.25156 9.82523 5.05006 9.65286 4.97531L8.39661 4.42831L9.82786 3.60206C9.90686 3.55643 9.96336 3.48268 9.98686 3.39443C10.0104 3.30618 9.99823 3.21418 9.95248 3.13518C9.86148 2.97868 9.64348 2.91918 9.48573 3.01005L8.06411 3.83068L8.21636 2.48743C8.22686 2.3963 8.20111 2.30668 8.14398 2.23493C8.08711 2.16368 8.00598 2.11893 7.91611 2.10905C7.72486 2.08643 7.55736 2.22468 7.53773 2.41105L7.34461 4.25618L5.37498 5.40206V3.12668L6.86561 2.01268C6.93611 1.96093 6.98223 1.88443 6.99548 1.79718C7.00923 1.70605 6.98498 1.61055 6.92923 1.53505C6.82036 1.38743 6.61236 1.35355 6.46311 1.46343L5.37498 2.27505V0.62568C5.37498 0.42443 5.17686 0.28418 4.99898 0.28418C4.82211 0.28418 4.62498 0.42443 4.62498 0.62568V2.26505L3.55336 1.4633C3.40673 1.35443 3.19298 1.38743 3.08386 1.53493C3.02673 1.61193 3.00211 1.70893 3.01598 1.8008C3.02898 1.88668 3.07448 1.9618 3.14311 2.01193L4.62498 3.11618V5.40093L2.68486 4.28018L2.47823 2.4338C2.45761 2.26155 2.31411 2.13168 2.14411 2.13168C2.13048 2.13168 2.11636 2.13243 2.10336 2.13418C1.91886 2.1553 1.78473 2.32468 1.80448 2.5133L1.96223 3.85681L0.507109 3.02218C0.455609 2.99281 0.397109 2.97718 0.337984 2.97718C0.215734 2.97718 0.102234 3.04293 0.0417343 3.14893C-0.0511407 3.3108 0.00498433 3.5198 0.167984 3.6153L1.63236 4.45506L0.378234 5.00581C0.294484 5.04256 0.230109 5.10955 0.197234 5.19443C0.164109 5.27943 0.166234 5.37231 0.202859 5.45543C0.274859 5.62143 0.476234 5.70618 0.652734 5.63193L2.36998 4.87793L4.31686 5.99418L2.36586 7.12056L0.663234 6.37893C0.494109 6.30556 0.286859 6.38793 0.213859 6.55581C0.138359 6.72818 0.217609 6.93006 0.390609 7.00606L1.62961 7.54556L0.176859 8.38431C0.0147345 8.47931 -0.0410157 8.68868 0.0526093 8.85106C0.113359 8.95631 0.227109 9.02168 0.348859 9.02168C0.409484 9.02168 0.468734 9.00556 0.519109 8.97593L1.98161 8.13156L1.82648 9.49431C1.81648 9.58518 1.84236 9.67443 1.89961 9.74593C1.95661 9.81706 2.03786 9.86193 2.12536 9.87143C2.13873 9.87331 2.15311 9.87368 2.16736 9.87368C2.34111 9.87368 2.48686 9.74343 2.50648 9.56968L2.70198 7.70618L4.62498 6.58781V8.85781L3.30448 9.96243C3.16348 10.0806 3.14748 10.2962 3.26773 10.4416C3.33098 10.5199 3.43111 10.5667 3.53561 10.5667C3.62998 10.5667 3.69336 10.5262 3.74073 10.4886L4.62498 9.74693V11.3734C4.62498 11.5747 4.82211 11.7149 4.99898 11.7149C5.17686 11.7149 5.37498 11.5747 5.37498 11.3734V9.73593L6.27286 10.4901C6.42236 10.6104 6.62461 10.5819 6.73923 10.4431C6.79673 10.3739 6.82711 10.2881 6.82461 10.2009C6.82198 10.1063 6.78098 10.0214 6.70973 9.96206L5.37498 8.84656V6.58243L7.33848 7.71693L7.54673 9.58068C7.56736 9.75256 7.71123 9.88218 7.88161 9.88218C7.89773 9.88218 7.90773 9.88131 7.91873 9.87968C8.00873 9.86981 8.08948 9.82506 8.14611 9.75406C8.20336 9.68231 8.22911 9.59243 8.21848 9.50106L8.05986 8.14018L9.49223 8.96156C9.54361 8.99118 9.60236 9.00681 9.66211 9.00681C9.78448 9.00681 9.89798 8.94093 9.95811 8.83493C10.0512 8.67243 9.99498 8.46331 9.83198 8.36893Z" fill="#222222"/>
</svg>
