<?xml version="1.0" encoding="iso-8859-1"?>
<!-- Uploaded to: SVG Repo, www.svgrepo.com, Generator: SVG Repo Mixer Tools -->
<svg fill="#000000" height="800px" width="800px" version="1.1" id="Layer_1" xmlns="http://www.w3.org/2000/svg" xmlns:xlink="http://www.w3.org/1999/xlink" 
	 viewBox="0 0 480 480" xml:space="preserve">
<g>
	<g>
		<path d="M472,0h-40c-13.232,0-24,10.768-24,24h-16c0-13.232-10.768-24-24-24h-48H160h-48C98.768,0,88,10.768,88,24H72
			C72,10.768,61.232,0,48,0H8C3.584,0,0,3.584,0,8v48v32c0,4.416,3.584,8,8,8h40c13.232,0,24-10.768,24-24h16v256v32v40
			c0,13.232,10.768,24,24,24h256c13.232,0,24-10.768,24-24v-40v-32V72h16c0,13.232,10.768,24,24,24h40c4.424,0,8-3.584,8-8V56V8
			C480,3.584,476.424,0,472,0z M56,72c0,4.408-3.592,8-8,8H16V64h40V72z M56,32v16H16V16h32c4.408,0,8,3.592,8,8V32z M88,56H72V40
			h16V56z M168,16h144v104H168V16z M168,136h144v40H168V136z M168,192h144v8c0,4.408-3.584,8-8,8H176c-4.408,0-8-3.592-8-8V192z
			 M376,400c0,4.408-3.584,8-8,8H112c-4.408,0-8-3.592-8-8v-32h272V400z M376,352H104v-16h272V352z M376,32v32v256H104V64V32v-8
			c0-4.408,3.592-8,8-8h40v112v56v16c0,13.232,10.768,24,24,24h128c13.232,0,24-10.768,24-24v-16v-56V16h40c4.416,0,8,3.592,8,8V32z
			 M408,56h-16V40h16V56z M464,80h-32c-4.416,0-8-3.592-8-8v-8h40V80z M464,48h-40V32v-8c0-4.408,3.584-8,8-8h32V48z"/>
	</g>
</g>
<g>
	<g>
		<path d="M184,464H32c-4.416,0-8,3.584-8,8c0,4.416,3.584,8,8,8h152c4.416,0,8-3.584,8-8C192,467.584,188.416,464,184,464z"/>
	</g>
</g>
<g>
	<g>
		<path d="M448,464H288c-4.424,0-8,3.584-8,8c0,4.416,3.576,8,8,8h160c4.424,0,8-3.584,8-8C456,467.584,452.424,464,448,464z"/>
	</g>
</g>
<g>
	<g>
		<path d="M248,464h-16c-4.416,0-8,3.584-8,8c0,4.416,3.584,8,8,8h16c4.424,0,8-3.584,8-8C256,467.584,252.424,464,248,464z"/>
	</g>
</g>
</svg>