<svg width="52" height="70" viewBox="0 0 52 70" fill="none" xmlns="http://www.w3.org/2000/svg">
<path d="M43.6883 48.3561C43.5241 48.3561 43.3574 48.3163 43.2029 48.2325C42.708 47.9639 42.5245 47.345 42.7932 46.8501C46.9821 39.131 49.106 31.8283 49.106 25.1449C49.106 12.4042 38.7407 2.03902 26.0001 2.03902C24.4556 2.03902 22.9119 2.19215 21.4117 2.49443C20.8603 2.60586 20.3222 2.2482 20.2111 1.69627C20.0999 1.14434 20.4573 0.606621 21.0092 0.495469C22.6414 0.166797 24.3205 0 26 0C39.8649 0 51.1449 11.28 51.1449 25.1449C51.1449 32.1717 48.9379 39.8016 44.5851 47.8226C44.4006 48.163 44.05 48.3561 43.6883 48.3561Z" fill="#BEAD8E"/>
<path d="M26 69.9999C24.9183 69.9999 23.9059 69.5736 23.1493 68.7997C20.2411 65.8247 14.6403 59.6753 9.80321 51.9169C3.86579 42.3939 0.855103 33.3865 0.855103 25.1448C0.855103 15.0163 6.88303 5.92215 16.2122 1.97631C16.731 1.75701 17.3289 1.99941 17.5483 2.51813C17.7678 3.0367 17.5251 3.63498 17.0066 3.85428C8.43356 7.48033 2.89413 15.8373 2.89413 25.1448C2.89413 43.7178 19.5137 62.1633 24.6074 67.3744C24.9771 67.7527 25.4717 67.9609 26 67.9609C26.5283 67.9609 27.0229 67.7527 27.3926 67.3744C30.2228 64.4791 35.6756 58.4953 40.3966 50.9501C40.6955 50.4726 41.3245 50.328 41.8018 50.6266C42.2791 50.9253 42.4239 51.5544 42.1253 52.0317C37.3027 59.739 31.7382 65.8457 28.8507 68.7997C28.0941 69.5736 27.0817 69.9999 26 69.9999Z" fill="#BEAD8E"/>
<path d="M26 36.6312C23.4001 36.6312 20.9395 35.7948 18.8845 34.2124C18.4383 33.8689 18.3551 33.2288 18.6987 32.7826C19.0422 32.3366 19.6822 32.2531 20.1283 32.5968C21.8238 33.9022 23.8542 34.5922 26.0001 34.5922C31.3126 34.5922 35.6344 30.2702 35.6344 24.9579C35.6344 19.6455 31.3125 15.3234 26 15.3234C20.6875 15.3234 16.3657 19.6454 16.3657 24.9577C16.3657 26.4421 16.6939 27.8653 17.3414 29.1878C17.589 29.6935 17.3797 30.3043 16.874 30.5519C16.3677 30.7992 15.7574 30.59 15.51 30.0844C14.7248 28.4804 14.3267 26.7556 14.3267 24.9577C14.3267 18.521 19.5633 13.2844 26 13.2844C32.4367 13.2844 37.6733 18.521 37.6733 24.9577C37.6733 31.3945 32.4367 36.6312 26 36.6312Z" fill="#BEAD8E"/>
</svg>

