<svg width="55" height="67" viewBox="0 0 55 67" fill="none" xmlns="http://www.w3.org/2000/svg">
<path d="M33.3467 26.0215C31.1739 26.0215 29.5371 26.9527 29.5371 29.4924V33.6689C29.5371 36.2086 31.1739 37.1399 33.3467 37.1399C35.4913 37.1399 37.1563 36.2088 37.1563 33.6689V29.4924C37.1563 26.9527 35.4913 26.0215 33.3467 26.0215ZM35.1245 33.6689C35.1245 34.826 34.4472 35.3338 33.3467 35.3338C32.2462 35.3338 31.5971 34.8258 31.5971 33.6689V29.4924C31.5971 28.3355 32.2462 27.8275 33.3467 27.8275C34.4472 27.8275 35.1245 28.3355 35.1245 29.4924V33.6689Z" fill="#BEAD8E"/>
<path d="M32.2462 15.3262C31.9076 15.3262 31.5689 15.4674 31.3997 15.8342L21.0432 36.5754C20.9586 36.7164 20.9303 36.8576 20.9303 36.9987C20.9303 37.5067 21.3818 38.0428 22.0308 38.0428C22.4259 38.0428 22.821 37.8454 22.9903 37.5067L33.3468 16.8502C33.4032 16.7091 33.4314 16.568 33.4314 16.3987C33.4314 15.7494 32.8106 15.3262 32.2462 15.3262Z" fill="#BEAD8E"/>
<path d="M20.8738 16.4268C18.7009 16.4268 17.0642 17.358 17.0642 19.8978V24.0742C17.0642 26.6139 18.701 27.5452 20.8738 27.5452C23.0184 27.5452 24.6834 26.614 24.6834 24.0742V19.8978C24.6834 17.358 23.0184 16.4268 20.8738 16.4268ZM22.6515 24.0742C22.6515 25.2312 21.9742 25.7391 20.8737 25.7391C19.7731 25.7391 19.1241 25.2311 19.1241 24.0742V19.8978C19.1241 18.7407 19.7731 18.2329 20.8737 18.2329C21.9742 18.2329 22.6515 18.7409 22.6515 19.8978V24.0742Z" fill="#BEAD8E"/>
<path d="M54.0671 26.3162C54.7781 25.3348 55.0537 24.137 54.8432 22.9437C54.6328 21.7503 53.9641 20.719 52.9604 20.0399C52.0741 19.4403 51.6759 18.3462 51.9694 17.3171C52.3018 16.1517 52.1512 14.932 51.5453 13.8825C50.9393 12.833 49.9584 12.0927 48.783 11.7979C47.745 11.5375 46.9967 10.6455 46.9205 9.57825C46.8343 8.3695 46.2755 7.27473 45.3472 6.49573C44.4189 5.71685 43.2441 5.35686 42.0384 5.48157C40.9741 5.59188 39.9656 5.00969 39.529 4.03269C39.0345 2.92641 38.1351 2.08878 36.9964 1.67435C35.8576 1.25978 34.6303 1.32338 33.5403 1.85297C32.5779 2.32079 31.4312 2.11835 30.6867 1.34981C29.8436 0.479469 28.7119 0 27.5 0C26.2882 0 25.1565 0.479469 24.3135 1.34995C23.5692 2.11861 22.4224 2.32079 21.46 1.8531C20.37 1.32338 19.1426 1.25991 18.0038 1.67448C16.8651 2.08891 15.9656 2.92654 15.4712 4.03282C15.0345 5.00969 14.0268 5.59228 12.9618 5.4817C11.7568 5.35647 10.5814 5.71685 9.65306 6.49586C8.72474 7.27487 8.16597 8.3695 8.07973 9.57838C8.00357 10.6457 7.25519 11.5376 6.21721 11.798C5.04183 12.0928 4.06078 12.8331 3.4549 13.8826C2.84902 14.9321 2.69827 16.1518 3.03079 17.3173C3.32431 18.3462 2.92597 19.4405 2.03966 20.0401C1.03597 20.7192 0.367276 21.7505 0.156985 22.9438C-0.0534368 24.1373 0.222153 25.335 0.933112 26.3163C1.56071 27.1829 1.56071 28.3473 0.933112 29.2138C0.222153 30.1953 -0.0534368 31.3929 0.156985 32.5865C0.367407 33.7799 1.0361 34.8111 2.03979 35.4901C2.9261 36.0897 3.32431 37.1838 3.03079 38.2129C2.69841 39.3783 2.84902 40.5981 3.4549 41.6474C4.06078 42.6969 5.04183 43.4373 6.21721 43.7323C7.25506 43.9926 8.00357 44.8845 8.07973 45.9519C8.16597 47.1607 8.72474 48.2553 9.65306 49.0343C10.5814 49.8133 11.7565 50.1736 12.9618 50.0485C14.0264 49.938 15.0346 50.5204 15.4712 51.4974C15.9657 52.6036 16.8651 53.4411 18.0038 53.8557C19.1426 54.2703 20.3699 54.2068 21.4598 53.6771C22.4222 53.2095 23.569 53.4117 24.3134 54.1804C25.1564 55.0508 26.288 55.5302 27.4999 55.5302C28.7118 55.5302 29.8435 55.0508 30.6865 54.1804C31.4309 53.4117 32.5775 53.2095 33.54 53.6771C34.6299 54.2068 35.8574 54.2703 36.9961 53.8557C38.1349 53.4413 39.0344 52.6038 39.5288 51.4974C39.9653 50.5204 40.9735 49.9382 42.0381 50.0485C43.2435 50.1736 44.4186 49.8132 45.3469 49.0343C46.2752 48.2553 46.834 47.1607 46.9202 45.9519C46.9964 44.8846 47.7448 43.9927 48.7828 43.7323C49.9581 43.4375 50.9392 42.6971 51.5451 41.6476C52.1509 40.5981 52.3017 39.3783 51.9692 38.213C51.6757 37.1841 52.074 36.0898 52.9602 35.4902C53.9639 34.8112 54.6326 33.7799 54.843 32.5866C55.0534 31.3932 54.7778 30.1954 54.0669 29.214C53.4394 28.3471 53.4394 27.1828 54.0671 26.3162ZM52.4747 30.3672C52.8704 30.9136 53.0239 31.5804 52.9068 32.2448C52.7897 32.9093 52.4174 33.4834 51.8586 33.8614C50.2667 34.9385 49.5514 36.9038 50.0785 38.7522C50.2636 39.401 50.1797 40.0801 49.8424 40.6643C49.5051 41.2486 48.959 41.6608 48.3046 41.8249C46.4404 42.2926 45.0959 43.8948 44.9592 45.8119C44.9111 46.4848 44.6001 47.0943 44.0832 47.528C43.5664 47.9615 42.9124 48.1621 42.2411 48.0927C40.3298 47.8948 38.5181 48.9402 37.7338 50.6949C37.4584 51.3109 36.9578 51.7771 36.3238 52.008C35.6897 52.2388 35.0064 52.2033 34.3996 51.9085C32.671 51.0684 30.6112 51.4318 29.2741 52.8124C28.8048 53.2969 28.1748 53.5639 27.5 53.5639C26.8253 53.5639 26.1954 53.2969 25.726 52.8124C24.869 51.9274 23.7149 51.4606 22.5417 51.4606C21.8845 51.4606 21.2212 51.607 20.6005 51.9086C19.9938 52.2036 19.3103 52.2388 18.6763 52.0081C18.0423 51.7774 17.5417 51.311 17.2663 50.6951C16.4821 48.9405 14.6702 47.8949 12.7591 48.0928C12.0877 48.1621 11.4338 47.9618 10.917 47.5281C10.4001 47.0945 10.0891 46.485 10.0411 45.812C9.90431 43.8949 8.55986 42.2927 6.69563 41.8251C6.04121 41.6609 5.495 41.2487 5.15778 40.6646C4.82042 40.0803 4.73667 39.4011 4.9217 38.7524C5.44881 36.9042 4.7334 34.9388 3.14163 33.8617C2.58286 33.4836 2.21069 32.9096 2.09344 32.2451C1.97619 31.5807 2.12969 30.9138 2.52554 30.3675C3.65302 28.8109 3.65302 26.7194 2.52554 25.1629C2.12982 24.6166 1.97632 23.9498 2.09344 23.2854C2.21069 22.6209 2.58286 22.0468 3.14163 21.6687C4.73353 20.5916 5.44881 18.6264 4.9217 16.778C4.73667 16.1292 4.82055 15.4502 5.15791 14.8659C5.49526 14.2816 6.04134 13.8695 6.69577 13.7053C8.55986 13.2376 9.90431 11.6354 10.0411 9.7184C10.0891 9.04539 10.4003 8.43598 10.917 8.00231C11.4339 7.56864 12.0886 7.36817 12.7591 7.43765C14.6707 7.63564 16.4821 6.59021 17.2665 4.83538C17.5418 4.21943 18.0426 3.75305 18.6765 3.52234C19.3106 3.29151 19.9938 3.32697 20.6006 3.62179C22.3291 4.46191 24.389 4.09865 25.7261 2.71808C26.1955 2.23338 26.8255 1.96655 27.5002 1.96655C28.1749 1.96655 28.8048 2.23351 29.2742 2.71808C30.6112 4.09878 32.6711 4.46191 34.3997 3.62179C35.0065 3.32697 35.6898 3.29164 36.3239 3.52234C36.9578 3.75305 37.4586 4.21943 37.7339 4.83538C38.5181 6.59008 40.3295 7.63564 42.2412 7.43765C42.9125 7.36856 43.5664 7.56864 44.0833 8.00231C44.6001 8.43598 44.9113 9.04539 44.9593 9.7184C45.0961 11.6355 46.4405 13.2376 48.3047 13.7053C48.9591 13.8695 49.5052 14.2816 49.8426 14.8659C50.1799 15.4502 50.2638 16.1292 50.0788 16.778C49.5517 18.6263 50.2671 20.5916 51.8589 21.6687C52.4176 22.0468 52.7899 22.6209 52.9072 23.2854C53.0243 23.9498 52.8708 24.6166 52.4751 25.1629C51.3472 26.7193 51.3472 28.8108 52.4747 30.3672Z" fill="#BEAD8E"/>
<path d="M47.2726 29.1383C46.7335 29.0747 46.2446 29.46 46.1807 29.9992C45.063 39.4501 37.0322 46.577 27.5 46.577C17.968 46.577 9.93699 39.4501 8.81932 29.9992C8.75546 29.4599 8.26579 29.0744 7.72743 29.1383C7.18829 29.2021 6.80278 29.6909 6.86651 30.2302C8.10117 40.6704 16.9717 48.5434 27.5 48.5434C38.0284 48.5434 46.8989 40.6704 48.1335 30.2302C48.1973 29.6908 47.8117 29.202 47.2726 29.1383Z" fill="#BEAD8E"/>
<path d="M48.1485 25.4308C46.9725 14.916 38.0955 6.98682 27.5001 6.98682C16.9046 6.98682 8.02767 14.916 6.85151 25.4308C6.79119 25.9703 7.17971 26.4567 7.71937 26.5172C8.25786 26.5773 8.74531 26.189 8.80576 25.6493C9.8703 16.131 17.9072 8.95311 27.5001 8.95311C37.093 8.95311 45.1298 16.1309 46.1944 25.6493C46.2505 26.1518 46.6762 26.5233 47.1702 26.5233C47.2067 26.5233 47.2436 26.5214 47.2806 26.5172C47.8203 26.4569 48.2088 25.9705 48.1485 25.4308Z" fill="#BEAD8E"/>
<path d="M40.0702 52.5635C39.5273 52.5635 39.0871 53.0037 39.0871 53.5466V64.5408L27.879 59.8608C27.6366 59.7596 27.3636 59.7596 27.1214 59.8608L15.9133 64.5408V53.5466C15.9133 53.0037 15.4731 52.5635 14.9302 52.5635C14.3872 52.5635 13.947 53.0037 13.947 53.5466V66.0167C13.947 66.3456 14.1115 66.6527 14.3851 66.835C14.6588 67.0174 15.0055 67.0507 15.309 66.924L27.5001 61.8336L39.6914 66.924C39.8132 66.9749 39.9418 66.9999 40.0701 66.9999C40.2613 66.9999 40.4514 66.9441 40.6151 66.835C40.8889 66.6527 41.0532 66.3457 41.0532 66.0167V53.5466C41.0534 53.0036 40.6132 52.5635 40.0702 52.5635Z" fill="#BEAD8E"/>
</svg>

